<svg width="198" height="64" viewBox="0 0 198 64" fill="none" xmlns="http://www.w3.org/2000/svg">
<path d="M9 18.9722C9 17.2076 10.1563 15.6515 11.8458 15.1424L40.3458 6.55332C42.9133 5.77956 45.5 7.70163 45.5 10.3832V47.0278C45.5 48.7924 44.3437 50.3485 42.6542 50.8576L14.1542 59.4467C11.5867 60.2204 9 58.2984 9 55.6168V18.9722Z" fill="white"/>
<g filter="url(#filter0_d_396_2)">
<path d="M4 12.2095C4 11.7845 4.26856 11.406 4.66965 11.2656L12.6697 8.46562C13.3198 8.23806 14 8.72063 14 9.40948V35.7905C14 36.2155 13.7314 36.594 13.3304 36.7344L5.33035 39.5344C4.68017 39.7619 4 39.2794 4 38.5905V12.2095Z" fill="#AA92F6"/>
</g>
<g filter="url(#filter1_d_396_2)">
<path d="M17 7.74403C17 7.30242 17.2897 6.9131 17.7127 6.7862L25.7127 4.3862C26.3543 4.19372 27 4.67417 27 5.34403V16.256C27 16.6976 26.7103 17.0869 26.2873 17.2138L18.2873 19.6138C17.6457 19.8063 17 19.3258 17 18.656V7.74403Z" fill="white"/>
</g>
<g filter="url(#filter2_d_396_2)">
<path d="M30 3.74403C30 3.30242 30.2897 2.9131 30.7127 2.7862L38.7127 0.386204C39.3543 0.193721 40 0.674168 40 1.34403V12.256C40 12.6976 39.7103 13.0869 39.2873 13.2138L31.2873 15.6138C30.6457 15.8063 30 15.3258 30 14.656V3.74403Z" fill="#E46363"/>
</g>
<g filter="url(#filter3_d_396_2)">
<path d="M17 23.744C17 23.3024 17.2897 22.9131 17.7127 22.7862L25.7127 20.3862C26.3543 20.1937 27 20.6742 27 21.344V32.256C27 32.6976 26.7103 33.0869 26.2873 33.2138L18.2873 35.6138C17.6457 35.8063 17 35.3258 17 34.656V23.744Z" fill="#E46363"/>
</g>
<g filter="url(#filter4_d_396_2)">
<path d="M30 19.744C30 19.3024 30.2897 18.9131 30.7127 18.7862L38.7127 16.3862C39.3543 16.1937 40 16.6742 40 17.344V28.256C40 28.6976 39.7103 29.0869 39.2873 29.2138L31.2873 31.6138C30.6457 31.8063 30 31.3258 30 30.656V19.744Z" fill="white"/>
</g>
<g filter="url(#filter5_d_396_2)">
<path d="M4 43.744C4 43.3024 4.28967 42.9131 4.71265 42.7862L12.7127 40.3862C13.3543 40.1937 14 40.6742 14 41.344V52.256C14 52.6976 13.7103 53.0869 13.2873 53.2138L5.28735 55.6138C4.64574 55.8063 4 55.3258 4 54.656V43.744Z" fill="white"/>
</g>
<g filter="url(#filter6_d_396_2)">
<path d="M17 41.9638C17 40.2032 18.1511 38.6497 19.8354 38.1371L34.8354 33.5718C37.4051 32.7898 40 34.7124 40 37.3985V42.0362C40 43.7968 38.8489 45.3503 37.1646 45.8629L22.1646 50.4282C19.5949 51.2102 17 49.2876 17 46.6015V41.9638Z" fill="#AA92F6"/>
</g>
<path d="M80.64 45.36L80.56 45L78.92 45.12L78.04 44.68C77.72 46.1733 77.3067 47.5333 76.8 48.76L73.32 47.04V47.84L67.44 48.36V49.28L61.84 49.8L57.84 47.8V35.6L58.72 35.52L58.08 35.2V25.24L57.2 24.8V19.04L58.76 18.92L58.08 18.6V13.48L88.04 10.84L92.04 12.84V40.2C92.04 41.5067 91.8933 42.6533 91.6 43.64C91.3067 44.6267 90.7733 45.4133 90 46C89.2267 46.6133 88.1067 47 86.64 47.16L84.64 47.36L80.64 45.36ZM69.64 12.88V29.12C69.64 30.6933 69.6 32.4933 69.52 34.52C69.4667 36.52 69.2667 38.4133 68.92 40.2V35L58.24 35.96V47.36L63.04 46.92V46L68.92 45.48V42.48L72.64 46.04C73.0933 45.0267 73.44 43.84 73.68 42.48C73.9467 41.12 74.1467 39.6933 74.28 38.2C74.44 36.7067 74.5333 35.24 74.56 33.8C74.6133 32.3333 74.64 30.9867 74.64 29.76L82.68 29.04V37.64C82.68 38.36 82.5733 38.76 82.36 38.84C82.1467 38.8933 81.92 38.9467 81.68 39V30.28L75.32 30.84V42.72L80.24 42.32L80.92 44.92L82.6 44.76C83.9867 44.6267 85.04 44.28 85.76 43.72C86.48 43.16 86.9733 42.4133 87.24 41.48C87.5067 40.52 87.64 39.4267 87.64 38.2V11.28L69.64 12.88ZM58.48 13.84V18.16L68.64 17.28V12.96L58.48 13.84ZM80.76 17.12L82.68 16.96V18.6L80.76 18.76V17.12ZM74.64 17.68L76.44 17.52V19.16L74.64 19.32V17.68ZM57.6 19.4V24.36L69.12 23.36V18.4L57.6 19.4ZM80.76 23.04L82.68 22.88V24.48L80.76 24.64V23.04ZM74.64 23.6L76.44 23.44V25.04L74.64 25.2V23.6ZM58.48 25.44V29.52L68.64 28.64V24.56L58.48 25.44ZM58.48 30.68V34.76L68.64 33.88V29.8L58.48 30.68ZM78.04 35.44L79 35.36V37.52L78.04 37.6V35.44ZM62.68 39.96L64.48 39.8V41.44L62.68 41.6V39.96Z" fill="#E46363" fill-opacity="0.99"/>
<path d="M80.64 45.36L80.56 45L78.92 45.12L78.04 44.68C77.72 46.1733 77.3067 47.5333 76.8 48.76L73.32 47.04V47.84L67.44 48.36V49.28L61.84 49.8L57.84 47.8V35.6L58.72 35.52L58.08 35.2V25.24L57.2 24.8V19.04L58.76 18.92L58.08 18.6V13.48L88.04 10.84L92.04 12.84V40.2C92.04 41.5067 91.8933 42.6533 91.6 43.64C91.3067 44.6267 90.7733 45.4133 90 46C89.2267 46.6133 88.1067 47 86.64 47.16L84.64 47.36L80.64 45.36ZM69.64 12.88V29.12C69.64 30.6933 69.6 32.4933 69.52 34.52C69.4667 36.52 69.2667 38.4133 68.92 40.2V35L58.24 35.96V47.36L63.04 46.92V46L68.92 45.48V42.48L72.64 46.04C73.0933 45.0267 73.44 43.84 73.68 42.48C73.9467 41.12 74.1467 39.6933 74.28 38.2C74.44 36.7067 74.5333 35.24 74.56 33.8C74.6133 32.3333 74.64 30.9867 74.64 29.76L82.68 29.04V37.64C82.68 38.36 82.5733 38.76 82.36 38.84C82.1467 38.8933 81.92 38.9467 81.68 39V30.28L75.32 30.84V42.72L80.24 42.32L80.92 44.92L82.6 44.76C83.9867 44.6267 85.04 44.28 85.76 43.72C86.48 43.16 86.9733 42.4133 87.24 41.48C87.5067 40.52 87.64 39.4267 87.64 38.2V11.28L69.64 12.88ZM58.48 13.84V18.16L68.64 17.28V12.96L58.48 13.84ZM80.76 17.12L82.68 16.96V18.6L80.76 18.76V17.12ZM74.64 17.68L76.44 17.52V19.16L74.64 19.32V17.68ZM57.6 19.4V24.36L69.12 23.36V18.4L57.6 19.4ZM80.76 23.04L82.68 22.88V24.48L80.76 24.64V23.04ZM74.64 23.6L76.44 23.44V25.04L74.64 25.2V23.6ZM58.48 25.44V29.52L68.64 28.64V24.56L58.48 25.44ZM58.48 30.68V34.76L68.64 33.88V29.8L58.48 30.68ZM78.04 35.44L79 35.36V37.52L78.04 37.6V35.44ZM62.68 39.96L64.48 39.8V41.44L62.68 41.6V39.96Z" fill="white"/>
<path d="M93.4 46.84V41.12L97.28 40.76V38.04L94.4 36.64V31.44L95.08 31.36L93.2 27.28C93.84 27.12 94.4 26.9333 94.88 26.72L94.24 26.4V19.04L93.8 18.8V14.24L99 13.8V12.16L105.24 11.6L108.04 13L110.2 12.8L111.4 13.4C111.4 13.4 111.493 13.16 111.68 12.68C111.893 12.1733 112.08 11.6 112.24 10.96L118 10.88L120.84 12.32L124.04 12L128.04 14V20.08L126.96 20.12C126.8 20.8133 126.587 21.52 126.32 22.24C126.08 22.96 125.787 23.64 125.44 24.28L128.76 25.96L126.44 30.48L127.28 30.88V36.08L126.4 36.16V39.48L128.24 40.4V46.12L97.4 48.84L93.4 46.84ZM111.56 39.92V38.96L122 38.04V34.76L111.56 35.68V34.72L122.88 33.72V29.32L121.52 29.44L124.12 24.32C123.427 24.2133 122.773 24.0667 122.16 23.88C121.547 23.6667 120.96 23.4267 120.4 23.16C120.933 22.3867 121.4 21.48 121.8 20.44C122.2 19.3733 122.467 18.48 122.6 17.76L123.64 17.68V12.44L117.04 13C117.28 12.4667 117.44 11.9067 117.52 11.32L112.56 11.36C112.4 12.08 112.107 12.8933 111.68 13.8C111.28 14.68 110.84 15.5067 110.36 16.28C109.907 17.0533 109.493 17.6133 109.12 17.96L104.84 18.36V17.44L109.8 17V13.24L104.84 13.68V12.04L99.4 12.52V14.16L94.2 14.6V18.36L99.4 17.92V18.84L94.64 19.24V25.96L97.56 25.72C97.08 26.0667 96.52 26.3867 95.88 26.68C95.24 26.9467 94.52 27.2267 93.72 27.52L95.52 31.4C96.2933 30.9467 97.0267 30.4267 97.72 29.84C98.44 29.2267 99 28.6267 99.4 28.04V30.64L104.84 30.16V27.56C105.4 28.2267 106.04 28.7733 106.76 29.2C107.507 29.6267 108.173 29.9733 108.76 30.24L109.84 27.68L111.28 30.36L94.8 31.8V36.2L106.12 35.2V40.4L103.12 40.64V36.32L97.68 36.8V41.12L93.8 41.48V46.4L123.84 43.8V38.84L111.56 39.92ZM117.72 18.16C117.667 18.48 117.52 18.92 117.28 19.48C117.067 20.04 116.827 20.52 116.56 20.92C115.84 20.2533 115.28 19.4267 114.88 18.44L117.72 18.16ZM104.52 20.92L105.64 20.84V22.48L104.52 22.56V20.92ZM98.64 21.44L99.76 21.36V23L98.64 23.08V21.44ZM110.64 23.76C110.64 23.76 110.773 23.6 111.04 23.28C111.307 22.9333 111.547 22.5867 111.76 22.24C111.973 22.5867 112.187 22.92 112.4 23.24C112.613 23.5333 112.827 23.7867 113.04 24C112.533 24.3467 111.987 24.6667 111.4 24.96C110.813 25.2533 110.093 25.5333 109.24 25.8C108.84 25.6933 108.387 25.56 107.88 25.4C107.4 25.24 107 25.08 106.68 24.92L109.48 24.68V21.52L110.64 23.76ZM111.96 30.28C112.813 29.9067 113.693 29.4133 114.6 28.8C115.507 28.16 116.213 27.5467 116.72 26.96C117.253 27.4667 117.933 27.96 118.76 28.44C119.613 28.92 120.333 29.2667 120.92 29.48L111.96 30.28Z" fill="#E46363" fill-opacity="0.99"/>
<path d="M93.4 46.84V41.12L97.28 40.76V38.04L94.4 36.64V31.44L95.08 31.36L93.2 27.28C93.84 27.12 94.4 26.9333 94.88 26.72L94.24 26.4V19.04L93.8 18.8V14.24L99 13.8V12.16L105.24 11.6L108.04 13L110.2 12.8L111.4 13.4C111.4 13.4 111.493 13.16 111.68 12.68C111.893 12.1733 112.08 11.6 112.24 10.96L118 10.88L120.84 12.32L124.04 12L128.04 14V20.08L126.96 20.12C126.8 20.8133 126.587 21.52 126.32 22.24C126.08 22.96 125.787 23.64 125.44 24.28L128.76 25.96L126.44 30.48L127.28 30.88V36.08L126.4 36.16V39.48L128.24 40.4V46.12L97.4 48.84L93.4 46.84ZM111.56 39.92V38.96L122 38.04V34.76L111.56 35.68V34.72L122.88 33.72V29.32L121.52 29.44L124.12 24.32C123.427 24.2133 122.773 24.0667 122.16 23.88C121.547 23.6667 120.96 23.4267 120.4 23.16C120.933 22.3867 121.4 21.48 121.8 20.44C122.2 19.3733 122.467 18.48 122.6 17.76L123.64 17.68V12.44L117.04 13C117.28 12.4667 117.44 11.9067 117.52 11.32L112.56 11.36C112.4 12.08 112.107 12.8933 111.68 13.8C111.28 14.68 110.84 15.5067 110.36 16.28C109.907 17.0533 109.493 17.6133 109.12 17.96L104.84 18.36V17.44L109.8 17V13.24L104.84 13.68V12.04L99.4 12.52V14.16L94.2 14.6V18.36L99.4 17.92V18.84L94.64 19.24V25.96L97.56 25.72C97.08 26.0667 96.52 26.3867 95.88 26.68C95.24 26.9467 94.52 27.2267 93.72 27.52L95.52 31.4C96.2933 30.9467 97.0267 30.4267 97.72 29.84C98.44 29.2267 99 28.6267 99.4 28.04V30.64L104.84 30.16V27.56C105.4 28.2267 106.04 28.7733 106.76 29.2C107.507 29.6267 108.173 29.9733 108.76 30.24L109.84 27.68L111.28 30.36L94.8 31.8V36.2L106.12 35.2V40.4L103.12 40.64V36.32L97.68 36.8V41.12L93.8 41.48V46.4L123.84 43.8V38.84L111.56 39.92ZM117.72 18.16C117.667 18.48 117.52 18.92 117.28 19.48C117.067 20.04 116.827 20.52 116.56 20.92C115.84 20.2533 115.28 19.4267 114.88 18.44L117.72 18.16ZM104.52 20.92L105.64 20.84V22.48L104.52 22.56V20.92ZM98.64 21.44L99.76 21.36V23L98.64 23.08V21.44ZM110.64 23.76C110.64 23.76 110.773 23.6 111.04 23.28C111.307 22.9333 111.547 22.5867 111.76 22.24C111.973 22.5867 112.187 22.92 112.4 23.24C112.613 23.5333 112.827 23.7867 113.04 24C112.533 24.3467 111.987 24.6667 111.4 24.96C110.813 25.2533 110.093 25.5333 109.24 25.8C108.84 25.6933 108.387 25.56 107.88 25.4C107.4 25.24 107 25.08 106.68 24.92L109.48 24.68V21.52L110.64 23.76ZM111.96 30.28C112.813 29.9067 113.693 29.4133 114.6 28.8C115.507 28.16 116.213 27.5467 116.72 26.96C117.253 27.4667 117.933 27.96 118.76 28.44C119.613 28.92 120.333 29.2667 120.92 29.48L111.96 30.28Z" fill="white"/>
<path d="M58.48 13.84V18.16L68.64 17.28V12.96L58.48 13.84Z" fill="white"/>
<path d="M58.48 13.84V18.16L68.64 17.28V12.96L58.48 13.84Z" fill="#E46363" fill-opacity="0.99"/>
<path fill-rule="evenodd" clip-rule="evenodd" d="M111.56 39.92V38.96L122 38.04V34.76L111.56 35.68V34.72L122.88 33.72V29.32L121.52 29.44L124.12 24.32C123.427 24.2133 122.773 24.0667 122.16 23.88C121.547 23.6667 120.96 23.4267 120.4 23.16C120.933 22.3867 121.4 21.48 121.8 20.44C122.2 19.3733 122.467 18.48 122.6 17.76L123.64 17.68V12.44L117.04 13C117.28 12.4667 117.44 11.9067 117.52 11.32L112.56 11.36C112.4 12.08 112.107 12.8933 111.68 13.8C111.28 14.68 110.84 15.5067 110.36 16.28C109.907 17.0533 109.493 17.6133 109.12 17.96L104.84 18.36V17.44L109.8 17V13.24L104.84 13.68V12.04L99.4 12.52V14.16L94.2 14.6V18.36L99.4 17.92V18.84L94.64 19.24V25.96L97.56 25.72C97.08 26.0667 96.52 26.3867 95.88 26.68C95.24 26.9467 94.52 27.2267 93.72 27.52L95.52 31.4C96.2933 30.9467 97.0267 30.4267 97.72 29.84C98.44 29.2267 99 28.6267 99.4 28.04V30.64L104.84 30.16V27.56C105.4 28.2267 106.04 28.7733 106.76 29.2C107.507 29.6267 108.173 29.9733 108.76 30.24L109.84 27.68L111.28 30.36L94.8 31.8V36.2L106.12 35.2V40.4L103.12 40.64V36.32L97.68 36.8V41.12L93.8 41.48V46.4L123.84 43.8V38.84L111.56 39.92ZM117.28 19.48C117.52 18.92 117.667 18.48 117.72 18.16L114.88 18.44C115.28 19.4267 115.84 20.2533 116.56 20.92C116.827 20.52 117.067 20.04 117.28 19.48ZM105.64 20.84L104.52 20.92V22.56L105.64 22.48V20.84ZM99.76 21.36L98.64 21.44V23.08L99.76 23V21.36ZM111.04 23.28L110.64 23.76L109.48 21.52V24.68L106.68 24.92C107 25.08 107.4 25.24 107.88 25.4C108.387 25.56 108.84 25.6933 109.24 25.8C110.093 25.5333 110.813 25.2533 111.4 24.96C111.987 24.6667 112.533 24.3467 113.04 24C112.827 23.7867 112.613 23.5333 112.4 23.24C112.187 22.92 111.973 22.5867 111.76 22.24C111.547 22.5867 111.307 22.9333 111.04 23.28ZM114.6 28.8C113.693 29.4133 112.813 29.9067 111.96 30.28L120.92 29.48C120.333 29.2667 119.613 28.92 118.76 28.44C117.933 27.96 117.253 27.4667 116.72 26.96C116.213 27.5467 115.507 28.16 114.6 28.8Z" fill="white"/>
<path fill-rule="evenodd" clip-rule="evenodd" d="M111.56 39.92V38.96L122 38.04V34.76L111.56 35.68V34.72L122.88 33.72V29.32L121.52 29.44L124.12 24.32C123.427 24.2133 122.773 24.0667 122.16 23.88C121.547 23.6667 120.96 23.4267 120.4 23.16C120.933 22.3867 121.4 21.48 121.8 20.44C122.2 19.3733 122.467 18.48 122.6 17.76L123.64 17.68V12.44L117.04 13C117.28 12.4667 117.44 11.9067 117.52 11.32L112.56 11.36C112.4 12.08 112.107 12.8933 111.68 13.8C111.28 14.68 110.84 15.5067 110.36 16.28C109.907 17.0533 109.493 17.6133 109.12 17.96L104.84 18.36V17.44L109.8 17V13.24L104.84 13.68V12.04L99.4 12.52V14.16L94.2 14.6V18.36L99.4 17.92V18.84L94.64 19.24V25.96L97.56 25.72C97.08 26.0667 96.52 26.3867 95.88 26.68C95.24 26.9467 94.52 27.2267 93.72 27.52L95.52 31.4C96.2933 30.9467 97.0267 30.4267 97.72 29.84C98.44 29.2267 99 28.6267 99.4 28.04V30.64L104.84 30.16V27.56C105.4 28.2267 106.04 28.7733 106.76 29.2C107.507 29.6267 108.173 29.9733 108.76 30.24L109.84 27.68L111.28 30.36L94.8 31.8V36.2L106.12 35.2V40.4L103.12 40.64V36.32L97.68 36.8V41.12L93.8 41.48V46.4L123.84 43.8V38.84L111.56 39.92ZM117.28 19.48C117.52 18.92 117.667 18.48 117.72 18.16L114.88 18.44C115.28 19.4267 115.84 20.2533 116.56 20.92C116.827 20.52 117.067 20.04 117.28 19.48ZM105.64 20.84L104.52 20.92V22.56L105.64 22.48V20.84ZM99.76 21.36L98.64 21.44V23.08L99.76 23V21.36ZM111.04 23.28L110.64 23.76L109.48 21.52V24.68L106.68 24.92C107 25.08 107.4 25.24 107.88 25.4C108.387 25.56 108.84 25.6933 109.24 25.8C110.093 25.5333 110.813 25.2533 111.4 24.96C111.987 24.6667 112.533 24.3467 113.04 24C112.827 23.7867 112.613 23.5333 112.4 23.24C112.187 22.92 111.973 22.5867 111.76 22.24C111.547 22.5867 111.307 22.9333 111.04 23.28ZM114.6 28.8C113.693 29.4133 112.813 29.9067 111.96 30.28L120.92 29.48C120.333 29.2667 119.613 28.92 118.76 28.44C117.933 27.96 117.253 27.4667 116.72 26.96C116.213 27.5467 115.507 28.16 114.6 28.8Z" fill="#E46363" fill-opacity="0.99"/>
<path fill-rule="evenodd" clip-rule="evenodd" d="M69.64 12.88V29.12C69.64 30.6933 69.6 32.4933 69.52 34.52C69.4667 36.52 69.2667 38.4133 68.92 40.2V35L58.24 35.96V47.36L63.04 46.92V46L68.92 45.48V42.48L72.64 46.04C73.0933 45.0267 73.44 43.84 73.68 42.48C73.9467 41.12 74.1467 39.6933 74.28 38.2C74.44 36.7067 74.5333 35.24 74.56 33.8C74.6133 32.3333 74.64 30.9867 74.64 29.76L82.68 29.04V37.64C82.68 38.36 82.5733 38.76 82.36 38.84C82.1467 38.8933 81.92 38.9467 81.68 39V30.28L75.32 30.84V42.72L80.24 42.32L80.92 44.92L82.6 44.76C83.9867 44.6267 85.04 44.28 85.76 43.72C86.48 43.16 86.9733 42.4133 87.24 41.48C87.5067 40.52 87.64 39.4267 87.64 38.2V11.28L69.64 12.88ZM82.68 16.96L80.76 17.12V18.76L82.68 18.6V16.96ZM76.44 17.52L74.64 17.68V19.32L76.44 19.16V17.52ZM82.68 22.88L80.76 23.04V24.64L82.68 24.48V22.88ZM76.44 23.44L74.64 23.6V25.2L76.44 25.04V23.44ZM79 35.36L78.04 35.44V37.6L79 37.52V35.36ZM64.48 39.8L62.68 39.96V41.6L64.48 41.44V39.8Z" fill="white"/>
<path fill-rule="evenodd" clip-rule="evenodd" d="M69.64 12.88V29.12C69.64 30.6933 69.6 32.4933 69.52 34.52C69.4667 36.52 69.2667 38.4133 68.92 40.2V35L58.24 35.96V47.36L63.04 46.92V46L68.92 45.48V42.48L72.64 46.04C73.0933 45.0267 73.44 43.84 73.68 42.48C73.9467 41.12 74.1467 39.6933 74.28 38.2C74.44 36.7067 74.5333 35.24 74.56 33.8C74.6133 32.3333 74.64 30.9867 74.64 29.76L82.68 29.04V37.64C82.68 38.36 82.5733 38.76 82.36 38.84C82.1467 38.8933 81.92 38.9467 81.68 39V30.28L75.32 30.84V42.72L80.24 42.32L80.92 44.92L82.6 44.76C83.9867 44.6267 85.04 44.28 85.76 43.72C86.48 43.16 86.9733 42.4133 87.24 41.48C87.5067 40.52 87.64 39.4267 87.64 38.2V11.28L69.64 12.88ZM82.68 16.96L80.76 17.12V18.76L82.68 18.6V16.96ZM76.44 17.52L74.64 17.68V19.32L76.44 19.16V17.52ZM82.68 22.88L80.76 23.04V24.64L82.68 24.48V22.88ZM76.44 23.44L74.64 23.6V25.2L76.44 25.04V23.44ZM79 35.36L78.04 35.44V37.6L79 37.52V35.36ZM64.48 39.8L62.68 39.96V41.6L64.48 41.44V39.8Z" fill="#E46363" fill-opacity="0.99"/>
<path d="M57.6 19.4V24.36L69.12 23.36V18.4L57.6 19.4Z" fill="white"/>
<path d="M57.6 19.4V24.36L69.12 23.36V18.4L57.6 19.4Z" fill="#E46363" fill-opacity="0.99"/>
<path d="M58.48 25.44V29.52L68.64 28.64V24.56L58.48 25.44Z" fill="white"/>
<path d="M58.48 25.44V29.52L68.64 28.64V24.56L58.48 25.44Z" fill="#E46363" fill-opacity="0.99"/>
<path d="M58.48 30.68V34.76L68.64 33.88V29.8L58.48 30.68Z" fill="white"/>
<path d="M58.48 30.68V34.76L68.64 33.88V29.8L58.48 30.68Z" fill="#E46363" fill-opacity="0.99"/>
<path d="M136.984 32.672C136.44 32.656 135.896 32.648 135.352 32.648C134.808 32.648 134.28 32.648 133.768 32.648H133.24V30.2C133.24 30.008 133.248 29.824 133.264 29.648C133.28 29.472 133.288 29.296 133.288 29.12C133.288 28.88 133.408 28.752 133.648 28.736C134.112 28.736 134.616 28.736 135.16 28.736C135.72 28.72 136.24 28.712 136.72 28.712C136.72 28.632 136.72 28.552 136.72 28.472C136.736 28.376 136.736 28.288 136.72 28.208C136.64 27.552 136.584 27.136 136.552 26.96C136.52 26.768 136.504 26.624 136.504 26.528C136.504 26.464 136.504 26.376 136.504 26.264C136.52 26.136 136.536 26.048 136.552 26C136.856 26 137.248 25.992 137.728 25.976C138.224 25.944 138.704 25.912 139.168 25.88C139.648 25.848 140.008 25.832 140.248 25.832C140.248 25.864 140.248 25.904 140.248 25.952C140.264 25.984 140.28 26.064 140.296 26.192C140.376 26.592 140.44 27.008 140.488 27.44C140.552 27.872 140.6 28.32 140.632 28.784H141.064C141.064 28.784 141.248 28.784 141.616 28.784C142 28.784 142.504 28.784 143.128 28.784C143.752 28.768 144.416 28.752 145.12 28.736C145.312 28.736 145.488 28.752 145.648 28.784C145.808 28.8 145.976 28.8 146.152 28.784C146.744 28.752 147.184 28.728 147.472 28.712C147.76 28.696 147.96 28.688 148.072 28.688C148.2 28.672 148.304 28.664 148.384 28.664C148.464 28.664 148.576 28.672 148.72 28.688C148.88 28.688 148.992 28.704 149.056 28.736C149.024 29.04 149.008 29.44 149.008 29.936C149.008 30.416 149.008 30.896 149.008 31.376C149.024 31.84 149.024 32.192 149.008 32.432C148.944 32.432 148.888 32.432 148.84 32.432C148.792 32.432 148.688 32.44 148.528 32.456C147.408 32.568 146.192 32.64 144.88 32.672C143.584 32.704 142.256 32.712 140.896 32.696C140.928 33.112 140.952 33.528 140.968 33.944C140.984 34.344 141 34.744 141.016 35.144C141.112 35.144 141.208 35.144 141.304 35.144C141.416 35.144 141.52 35.136 141.616 35.12C141.968 35.104 142.32 35.096 142.672 35.096C143.04 35.096 143.408 35.096 143.776 35.096L143.872 37.448C143.552 37.496 143.224 37.544 142.888 37.592C142.568 37.64 142.248 37.688 141.928 37.736C141.784 37.752 141.64 37.768 141.496 37.784C141.368 37.784 141.256 37.784 141.16 37.784C140.728 37.8 140.312 37.824 139.912 37.856C139.512 37.872 139.112 37.896 138.712 37.928C138.52 37.944 138.336 37.952 138.16 37.952C137.984 37.952 137.8 37.96 137.608 37.976C137.544 37.976 137.464 37.96 137.368 37.928C137.304 37.88 137.256 37.808 137.224 37.712C137.208 37.248 137.176 36.728 137.128 36.152C137.08 35.576 137.056 35.096 137.056 34.712C137.056 34.328 137.048 33.968 137.032 33.632C137.016 33.296 137 32.976 136.984 32.672ZM148.072 34.952C148.488 35.192 148.848 35.48 149.152 35.816C149.456 36.152 149.72 36.528 149.944 36.944C150.104 37.232 150.224 37.528 150.304 37.832C150.4 38.136 150.472 38.448 150.52 38.768C150.584 39.28 150.52 39.8 150.328 40.328C150.056 41.064 149.632 41.696 149.056 42.224C148.896 42.368 148.728 42.512 148.552 42.656C148.392 42.784 148.224 42.904 148.048 43.016C147.152 43.56 146.184 43.816 145.144 43.784C144.968 43.768 144.872 43.664 144.856 43.472C144.84 43.312 144.824 43.152 144.808 42.992C144.808 42.816 144.8 42.648 144.784 42.488C144.752 41.976 144.712 41.464 144.664 40.952C144.632 40.424 144.608 39.904 144.592 39.392C144.576 39.008 144.528 38.632 144.448 38.264C144.384 37.896 144.352 37.52 144.352 37.136C144.352 36.976 144.352 36.824 144.352 36.68C144.368 36.52 144.328 36.368 144.232 36.224C144.216 36.016 144.2 35.76 144.184 35.456C144.184 35.152 144.184 34.88 144.184 34.64C144.2 34.384 144.208 34.256 144.208 34.256C144.32 34.192 144.432 34.16 144.544 34.16C144.672 34.144 144.792 34.152 144.904 34.184C145.048 34.2 145.192 34.208 145.336 34.208C145.48 34.192 145.624 34.192 145.768 34.208C146.088 34.208 146.384 34.264 146.656 34.376C146.896 34.472 147.136 34.568 147.376 34.664C147.616 34.744 147.848 34.84 148.072 34.952ZM138.472 44.624C138.376 44.624 138.328 44.528 138.328 44.336C138.344 44.144 138.376 43.904 138.424 43.616C138.488 43.328 138.56 43.048 138.64 42.776C138.72 42.504 138.784 42.288 138.832 42.128C138.896 41.968 138.92 41.928 138.904 42.008C139.016 42.008 139.128 42.016 139.24 42.032C139.352 42.032 139.464 42.032 139.576 42.032C140.216 42.048 140.848 42.056 141.472 42.056C142.112 42.04 142.752 42.04 143.392 42.056C143.552 42.072 143.712 42.096 143.872 42.128C144.048 42.16 144.224 42.192 144.4 42.224L144.424 44.6C144.2 44.6 143.976 44.6 143.752 44.6C143.544 44.6 143.336 44.608 143.128 44.624C142.344 44.608 141.568 44.6 140.8 44.6C140.032 44.616 139.256 44.624 138.472 44.624ZM171.88 38.024C171.944 38.2 171.976 38.384 171.976 38.576C171.992 38.768 172 38.96 172 39.152C172 39.264 171.992 39.376 171.976 39.488C171.976 39.584 171.984 39.688 172 39.8C172.032 40.296 171.968 40.76 171.808 41.192C171.664 41.624 171.472 42.048 171.232 42.464C171.184 42.528 171.128 42.592 171.064 42.656C171 42.72 170.928 42.784 170.848 42.848C170.736 42.96 170.616 43.08 170.488 43.208C170.36 43.32 170.224 43.432 170.08 43.544C170 43.608 169.904 43.672 169.792 43.736C169.68 43.8 169.568 43.864 169.456 43.928C169.344 43.976 169.216 44.016 169.072 44.048C168.944 44.08 168.84 44.176 168.76 44.336C168.744 44.368 168.688 44.4 168.592 44.432C168.512 44.464 168.432 44.48 168.352 44.48H167.08C167.08 44.48 167.072 44.472 167.056 44.456C167.056 44.456 167.048 44.456 167.032 44.456C167.016 44.472 166.992 44.48 166.96 44.48C166.72 44.48 166.464 44.456 166.192 44.408C166.08 44.376 165.968 44.344 165.856 44.312C165.744 44.296 165.624 44.272 165.496 44.24C165.464 44.24 165.432 44.224 165.4 44.192C165.368 44.176 165.336 44.16 165.304 44.144C165.256 44.112 165.2 44.08 165.136 44.048C165.088 44.016 165.04 43.992 164.992 43.976C164.4 43.608 163.968 43.152 163.696 42.608C163.424 42.048 163.256 41.44 163.192 40.784C163.176 40.704 163.168 40.624 163.168 40.544C163.168 40.464 163.168 40.392 163.168 40.328L166.792 40.424V38.12C166.104 38.152 165.416 38.176 164.728 38.192C164.056 38.192 163.384 38.192 162.712 38.192C162.712 38.592 162.712 39.032 162.712 39.512C162.712 39.976 162.704 40.4 162.688 40.784C162.688 41.168 162.688 41.448 162.688 41.624C162.72 42.44 162.72 43.248 162.688 44.048C162.672 44.848 162.704 45.648 162.784 46.448H158.944L158.848 37.736H158.824C158.664 37.736 158.488 37.744 158.296 37.76C158.12 37.76 157.944 37.768 157.768 37.784C157.448 37.784 157.112 37.792 156.76 37.808C156.424 37.808 156.056 37.816 155.656 37.832C155.64 37.4 155.6 36.984 155.536 36.584C155.472 36.184 155.496 35.784 155.608 35.384C155.656 35.192 155.72 35.056 155.8 34.976C155.88 34.896 156.016 34.856 156.208 34.856C156.64 34.856 157.072 34.856 157.504 34.856C157.936 34.84 158.368 34.832 158.8 34.832L158.776 32.384C158.872 32.368 159.08 32.36 159.4 32.36C159.736 32.344 160.12 32.344 160.552 32.36C160.984 32.36 161.4 32.36 161.8 32.36C162.216 32.344 162.544 32.328 162.784 32.312L162.736 34.688C163.024 34.656 163.312 34.64 163.6 34.64C163.904 34.624 164.2 34.608 164.488 34.592C164.76 34.576 165.016 34.568 165.256 34.568C165.512 34.552 165.768 34.528 166.024 34.496C166.168 34.48 166.28 34.504 166.36 34.568C166.44 34.616 166.512 34.696 166.576 34.808C166.608 34.776 166.64 34.744 166.672 34.712C166.72 34.68 166.768 34.656 166.816 34.64V34.592C166.848 34.592 166.88 34.584 166.912 34.568C166.912 34.568 166.896 34.552 166.864 34.52C166.592 34.04 166.312 33.552 166.024 33.056C165.752 32.56 165.472 32.056 165.184 31.544C165.296 31.496 165.4 31.456 165.496 31.424C165.608 31.376 165.704 31.328 165.784 31.28C166.056 31.12 166.328 31.032 166.6 31.016C166.888 31 167.184 31.008 167.488 31.04C167.952 31.104 168.384 31.336 168.784 31.736C169.024 31.96 169.224 32.208 169.384 32.48C169.544 32.736 169.68 33.024 169.792 33.344C169.872 33.552 169.912 33.76 169.912 33.968C169.912 34.176 169.896 34.376 169.864 34.568C169.848 34.68 169.824 34.792 169.792 34.904C169.76 35 169.728 35.096 169.696 35.192C169.888 35.304 170.072 35.432 170.248 35.576C170.424 35.704 170.592 35.84 170.752 35.984C171.072 36.256 171.312 36.576 171.472 36.944C171.632 37.296 171.768 37.656 171.88 38.024ZM179.464 45.056L174.856 43.928L179.32 25.184C179.432 25.184 179.688 25.232 180.088 25.328C180.488 25.424 180.944 25.536 181.456 25.664C181.968 25.792 182.472 25.92 182.968 26.048C183.464 26.16 183.864 26.24 184.168 26.288L182.584 32.192H182.776C183.368 32.144 183.928 32.216 184.456 32.408C184.984 32.584 185.496 32.824 185.992 33.128C186.072 33.176 186.152 33.24 186.232 33.32C186.312 33.4 186.384 33.48 186.448 33.56C186.576 33.72 186.712 33.872 186.856 34.016C187.016 34.16 187.16 34.32 187.288 34.496C187.384 34.608 187.464 34.736 187.528 34.88C187.608 35.008 187.688 35.136 187.768 35.264C187.848 35.408 187.904 35.56 187.936 35.72C187.968 35.88 188.08 36.008 188.272 36.104C188.336 36.12 188.376 36.184 188.392 36.296C188.424 36.408 188.44 36.512 188.44 36.608C188.456 37.104 188.456 37.616 188.44 38.144V38.168C189.048 38.152 189.656 38.136 190.264 38.12C190.888 38.088 191.496 38.064 192.088 38.048C192.504 38.032 192.92 38.024 193.336 38.024C193.752 38.024 194.16 38.024 194.56 38.024H194.608C194.944 38.024 195.128 38.056 195.16 38.12C195.208 38.168 195.216 38.36 195.184 38.696C195.072 39.72 194.776 40.64 194.296 41.456C193.816 42.256 193.168 42.96 192.352 43.568C192.176 43.696 191.984 43.808 191.776 43.904C191.568 43.984 191.36 44.064 191.152 44.144C190.608 44.4 190.048 44.52 189.472 44.504C188.912 44.488 188.352 44.472 187.792 44.456C187.376 44.424 186.976 44.32 186.592 44.144C186.208 43.968 185.832 43.776 185.464 43.568C185.032 43.312 184.608 43.008 184.192 42.656C183.872 42.4 183.6 42.112 183.376 41.792C183.168 41.456 183 41.104 182.872 40.736C182.776 40.448 182.672 40.16 182.56 39.872C182.464 39.584 182.432 39.28 182.464 38.96C182.48 38.88 182.488 38.8 182.488 38.72C182.504 38.64 182.52 38.56 182.536 38.48H181C181 38.512 180.992 38.544 180.976 38.576C180.976 38.592 180.976 38.608 180.976 38.624C180.736 39.712 180.464 40.792 180.16 41.864C179.872 42.936 179.64 44 179.464 45.056Z" fill="white"/>
<defs>
<filter id="filter0_d_396_2" x="0" y="8.40866" width="18" height="39.1827" filterUnits="userSpaceOnUse" color-interpolation-filters="sRGB">
<feFlood flood-opacity="0" result="BackgroundImageFix"/>
<feColorMatrix in="SourceAlpha" type="matrix" values="0 0 0 0 0 0 0 0 0 0 0 0 0 0 0 0 0 0 127 0" result="hardAlpha"/>
<feOffset dy="4"/>
<feGaussianBlur stdDeviation="2"/>
<feComposite in2="hardAlpha" operator="out"/>
<feColorMatrix type="matrix" values="0 0 0 0 0 0 0 0 0 0 0 0 0 0 0 0 0 0 0.25 0"/>
<feBlend mode="normal" in2="BackgroundImageFix" result="effect1_dropShadow_396_2"/>
<feBlend mode="normal" in="SourceGraphic" in2="effect1_dropShadow_396_2" result="shape"/>
</filter>
<filter id="filter1_d_396_2" x="13" y="4.34338" width="18" height="23.3132" filterUnits="userSpaceOnUse" color-interpolation-filters="sRGB">
<feFlood flood-opacity="0" result="BackgroundImageFix"/>
<feColorMatrix in="SourceAlpha" type="matrix" values="0 0 0 0 0 0 0 0 0 0 0 0 0 0 0 0 0 0 127 0" result="hardAlpha"/>
<feOffset dy="4"/>
<feGaussianBlur stdDeviation="2"/>
<feComposite in2="hardAlpha" operator="out"/>
<feColorMatrix type="matrix" values="0 0 0 0 0 0 0 0 0 0 0 0 0 0 0 0 0 0 0.25 0"/>
<feBlend mode="normal" in2="BackgroundImageFix" result="effect1_dropShadow_396_2"/>
<feBlend mode="normal" in="SourceGraphic" in2="effect1_dropShadow_396_2" result="shape"/>
</filter>
<filter id="filter2_d_396_2" x="26" y="0.343384" width="18" height="23.3132" filterUnits="userSpaceOnUse" color-interpolation-filters="sRGB">
<feFlood flood-opacity="0" result="BackgroundImageFix"/>
<feColorMatrix in="SourceAlpha" type="matrix" values="0 0 0 0 0 0 0 0 0 0 0 0 0 0 0 0 0 0 127 0" result="hardAlpha"/>
<feOffset dy="4"/>
<feGaussianBlur stdDeviation="2"/>
<feComposite in2="hardAlpha" operator="out"/>
<feColorMatrix type="matrix" values="0 0 0 0 0 0 0 0 0 0 0 0 0 0 0 0 0 0 0.25 0"/>
<feBlend mode="normal" in2="BackgroundImageFix" result="effect1_dropShadow_396_2"/>
<feBlend mode="normal" in="SourceGraphic" in2="effect1_dropShadow_396_2" result="shape"/>
</filter>
<filter id="filter3_d_396_2" x="13" y="20.3434" width="18" height="23.3132" filterUnits="userSpaceOnUse" color-interpolation-filters="sRGB">
<feFlood flood-opacity="0" result="BackgroundImageFix"/>
<feColorMatrix in="SourceAlpha" type="matrix" values="0 0 0 0 0 0 0 0 0 0 0 0 0 0 0 0 0 0 127 0" result="hardAlpha"/>
<feOffset dy="4"/>
<feGaussianBlur stdDeviation="2"/>
<feComposite in2="hardAlpha" operator="out"/>
<feColorMatrix type="matrix" values="0 0 0 0 0 0 0 0 0 0 0 0 0 0 0 0 0 0 0.25 0"/>
<feBlend mode="normal" in2="BackgroundImageFix" result="effect1_dropShadow_396_2"/>
<feBlend mode="normal" in="SourceGraphic" in2="effect1_dropShadow_396_2" result="shape"/>
</filter>
<filter id="filter4_d_396_2" x="26" y="16.3434" width="18" height="23.3132" filterUnits="userSpaceOnUse" color-interpolation-filters="sRGB">
<feFlood flood-opacity="0" result="BackgroundImageFix"/>
<feColorMatrix in="SourceAlpha" type="matrix" values="0 0 0 0 0 0 0 0 0 0 0 0 0 0 0 0 0 0 127 0" result="hardAlpha"/>
<feOffset dy="4"/>
<feGaussianBlur stdDeviation="2"/>
<feComposite in2="hardAlpha" operator="out"/>
<feColorMatrix type="matrix" values="0 0 0 0 0 0 0 0 0 0 0 0 0 0 0 0 0 0 0.25 0"/>
<feBlend mode="normal" in2="BackgroundImageFix" result="effect1_dropShadow_396_2"/>
<feBlend mode="normal" in="SourceGraphic" in2="effect1_dropShadow_396_2" result="shape"/>
</filter>
<filter id="filter5_d_396_2" x="0" y="40.3434" width="18" height="23.3132" filterUnits="userSpaceOnUse" color-interpolation-filters="sRGB">
<feFlood flood-opacity="0" result="BackgroundImageFix"/>
<feColorMatrix in="SourceAlpha" type="matrix" values="0 0 0 0 0 0 0 0 0 0 0 0 0 0 0 0 0 0 127 0" result="hardAlpha"/>
<feOffset dy="4"/>
<feGaussianBlur stdDeviation="2"/>
<feComposite in2="hardAlpha" operator="out"/>
<feColorMatrix type="matrix" values="0 0 0 0 0 0 0 0 0 0 0 0 0 0 0 0 0 0 0.25 0"/>
<feBlend mode="normal" in2="BackgroundImageFix" result="effect1_dropShadow_396_2"/>
<feBlend mode="normal" in="SourceGraphic" in2="effect1_dropShadow_396_2" result="shape"/>
</filter>
<filter id="filter6_d_396_2" x="13" y="33.3959" width="31" height="25.2083" filterUnits="userSpaceOnUse" color-interpolation-filters="sRGB">
<feFlood flood-opacity="0" result="BackgroundImageFix"/>
<feColorMatrix in="SourceAlpha" type="matrix" values="0 0 0 0 0 0 0 0 0 0 0 0 0 0 0 0 0 0 127 0" result="hardAlpha"/>
<feOffset dy="4"/>
<feGaussianBlur stdDeviation="2"/>
<feComposite in2="hardAlpha" operator="out"/>
<feColorMatrix type="matrix" values="0 0 0 0 0 0 0 0 0 0 0 0 0 0 0 0 0 0 0.25 0"/>
<feBlend mode="normal" in2="BackgroundImageFix" result="effect1_dropShadow_396_2"/>
<feBlend mode="normal" in="SourceGraphic" in2="effect1_dropShadow_396_2" result="shape"/>
</filter>
</defs>
</svg>
